<svg width="1076" height="249" viewBox="0 0 1076 249" fill="none" xmlns="http://www.w3.org/2000/svg">
<rect width="1076" height="249" fill="white"/>
<path d="M93.1912 136.392C93.1912 122.12 92.112 108.072 92.112 93.7634C92.112 87.8634 91.7656 81.8451 92.112 75.9566C92.2333 73.8948 105.768 74.8774 107.76 74.8774C113.283 74.8774 120.519 73.6064 125.807 75.1172C135.079 77.7665 143.031 72.719 152.007 72.719C157.504 72.719 166.728 67.4442 169.814 73.7982C173.253 80.8784 175.21 93.4783 175.21 101.378C175.21 114.845 178.448 128.165 178.448 141.788C178.448 143.043 180.289 147.203 179.287 148.023C177.956 149.112 169.254 150.421 167.116 150.421C159.883 150.421 152.014 149.553 144.993 151.261C130.73 154.73 115.233 159.055 100.746 159.055C93.5462 159.055 93.1912 158.016 93.1912 150.961C93.1912 145.745 93.1912 140.529 93.1912 135.312" stroke="#FF0000" stroke-width="3" stroke-linecap="round"/>
<path d="M885.322 160.134C885.322 149.322 885.322 138.51 885.322 127.698C885.322 121.544 887.48 115.679 887.48 109.412C887.48 96.3015 887.48 83.1912 887.48 70.081C887.48 67.9025 885.1 63.0062 888.14 63.0062C894.035 63.0062 899.931 63.0062 905.827 63.0062C916.366 63.0062 927.007 64.0854 937.663 64.0854C945.838 64.0854 953.999 63.0062 961.945 63.0062C967.974 63.0062 973.975 63.5004 979.692 61.8671C983.989 60.6391 981.103 63.3873 982.989 66.7834C985.041 70.4763 985.546 78.1016 985.687 82.1919C985.797 85.3703 986.628 88.2641 987.606 91.3052C989.202 96.2699 989.189 101.299 990.544 106.174C993.089 115.339 995.137 125.833 995.4 135.312C995.635 143.778 997.558 152.09 997.558 160.674C997.558 167.667 979.754 170.799 974.056 170.926C957.808 171.287 941.504 170.926 925.252 170.926C918.566 170.926 910.199 171.557 904.208 168.228C899.364 165.537 891.964 168.519 887.48 165.53" stroke="#0000FF" stroke-width="3" stroke-linecap="round"/>
<path d="M233.487 155.817C233.487 127.398 233.487 98.9795 233.487 70.5606C233.487 67.9683 232.295 64.0854 235.645 64.0854C240.404 64.0854 245.97 63.35 250.814 62.9463C271.384 61.2321 292.096 58.6308 312.748 57.6702C335.648 56.6051 358.326 55.4518 381.277 55.4518C400.973 55.4518 422.934 56.7179 442.132 61.3874C461.094 66 480.764 68.4022 500.288 68.4022C508.837 68.4022 517.402 68.5548 525.949 68.4022C535.027 68.2401 543.856 65.4166 552.929 65.1646C601.913 63.804 650.944 64.6795 699.94 65.1646C721.619 65.3793 743.311 65.1646 764.991 65.1646C774.155 65.1646 783.061 65.3034 792.091 63.9655C803.309 62.3037 813.997 56.531 825.426 56.531C833.747 56.531 832.441 88.02 832.441 93.7034C832.441 105.718 832.769 117.714 831.602 129.677C830.933 136.534 833.149 145.153 831.122 151.74C829.421 157.271 829.547 161.85 829.204 167.688C829.063 170.077 779.328 166.609 775.364 166.609C755.789 166.609 735.444 167.098 716.368 171.406C672.276 181.362 627.132 175.22 582.427 180.639C568.269 182.355 554.133 183.426 539.979 185.195C530.795 186.343 522.016 187.114 512.759 187.114C505.052 187.114 497.505 188.193 489.736 188.193C482.451 188.193 473.387 189.768 466.354 187.953C452.286 184.323 437.44 184.667 423.486 181.178C418.981 180.052 412.439 179.56 407.777 179.56C402.534 179.56 397.427 177.401 392.129 177.401C368.494 177.401 345.376 175.478 322.041 173.144C309.602 171.9 296.502 172.195 284.209 169.607C279.604 168.637 273.967 167.86 269.34 167.688C266.838 167.596 262.814 168.492 260.467 167.449C256.072 165.495 251.366 165.53 246.437 165.53C244.185 165.53 232.151 165.016 231.328 163.372" stroke="#800080" stroke-width="3" stroke-linecap="round"/>
</svg>
